<svg width="28" height="28" viewBox="0 0 28 28" fill="none" xmlns="http://www.w3.org/2000/svg">
<path d="M21.8924 22.0529C21.1458 22.7529 21.1458 23.9196 21.8924 24.6663C22.2658 25.0396 22.7324 25.2263 23.1991 25.2263C23.6657 25.2263 24.1324 25.0396 24.5057 24.6663C25.2524 23.9663 25.2524 22.7996 24.5057 22.0529C23.8058 21.3063 22.6391 21.3063 21.8924 22.0529ZM23.8524 24.0596C23.4791 24.4329 22.9191 24.4329 22.5458 24.0596C22.1725 23.6862 22.1724 23.1262 22.5458 22.7529C22.7324 22.5663 22.9658 22.4729 23.1991 22.4729C23.4325 22.4729 23.6658 22.5663 23.8525 22.7529C24.2258 23.1263 24.2258 23.6863 23.8524 24.0596Z" fill="#E3B873"/>
<path d="M27.6733 22.4L19.2733 14L22.5867 10.6866L22.5867 10.6866L24.5467 8.72665L24.5467 8.72659L27.3933 5.88C28.1867 5.08665 28.1867 3.78 27.3933 2.98665L25.0133 0.606648C24.64 0.233352 24.1267 0 23.5667 0C23.0067 0 22.4933 0.233352 22.12 0.606648L19.2734 3.4533L17.3134 5.4133L14 8.72665L5.6933 0.42C5.17995 -0.0933516 4.24665 -0.0933516 3.7333 0.42L0.42 3.73335C-0.14 4.2467 -0.14 5.13335 0.42 5.69335L1.4 6.67335L4.06 9.33335L6.6733 11.9466C6.6733 11.9466 6.6733 11.9466 6.67335 11.9467L8.72665 14L1.23523 21.4914C1.09555 21.5531 1.02025 21.679 0.98 21.84L0 27.44C0 27.6266 0.0466484 27.7666 0.14 27.86C0.233297 27.9534 0.326649 28 0.466649 28C0.513297 28 0.513297 28 0.56 28L5.94371 27.0047C5.98095 27.0145 6.02115 27.02 6.06665 27.02C6.20665 27.02 6.34665 26.9734 6.3933 26.88L13.9999 19.2734L14.6066 19.88C14.6066 19.88 14.6066 19.88 14.6067 19.8801L14.6067 19.8801L15.9133 21.1867C15.9133 21.1867 15.9133 21.1867 15.9134 21.1868L15.9134 21.1868L22.4 27.6734C22.6334 27.9068 22.9134 28.0001 23.1934 28.0001C23.4734 28.0001 23.7534 27.9067 23.94 27.6734L27.6734 23.9401C28.0933 23.52 28.0933 22.82 27.6733 22.4ZM6.06665 25.8534L4.43379 24.2205L19.9495 8.74951L21.56 10.36L6.06665 25.8534ZM22.7733 1.26C23.1933 0.84 23.9399 0.84 24.3599 1.26L26.74 3.64C27.16 4.06 27.16 4.80665 26.74 5.22665L24.2199 7.74665L20.2533 3.78L22.7733 1.26ZM19.6 4.43335L21.5834 6.4167L23.5667 8.4L22.26 9.70665L18.2934 5.74L19.6 4.43335ZM8.9833 12.95L9.98665 11.9466C10.1733 11.76 10.1733 11.48 9.98665 11.2933C9.8 11.1066 9.52 11.1066 9.3333 11.2933L8.32995 12.2966L7.6533 11.62L9.28665 9.98665C9.4733 9.8 9.4733 9.52 9.28665 9.3333C9.1 9.14659 8.82 9.14665 8.6333 9.3333L6.99995 10.9666L6.34659 10.3133L7.3266 9.3333C7.51324 9.14665 7.51324 8.86665 7.3266 8.67994C7.13995 8.49324 6.85995 8.4933 6.67324 8.67994L5.69324 9.65995L5.03989 9.00659L6.67324 7.37324C6.85989 7.18659 6.85989 6.90659 6.67324 6.71989C6.4866 6.53319 6.20659 6.53324 6.01989 6.71989L4.38665 8.35335L3.68665 7.65335L4.66665 6.67335C4.8533 6.4867 4.8533 6.2067 4.66665 6.02C4.48 5.8333 4.2 5.83335 4.0133 6.02L3.0333 7L2.37995 6.34665L4.0133 4.7133C4.19995 4.52665 4.19995 4.24665 4.0133 4.05995C3.82665 3.87324 3.54665 3.8733 3.35995 4.05995L1.72665 5.69335L1.0733 5.04C0.886649 4.85335 0.886649 4.57335 1.0733 4.38665L4.38665 1.07335C4.48 0.98 4.5733 0.933352 4.7133 0.933352C4.80665 0.933352 4.94665 0.98 5.03995 1.07335L13.3467 9.38L9.38 13.3466L8.9833 12.95ZM17.64 6.44L19.2729 8.07286L3.75714 23.5438L2.14665 21.9334L17.64 6.44ZM1.7733 22.8666L3.30433 24.3977C3.32763 24.451 3.36159 24.5016 3.40665 24.5466L5.09354 26.2335L1.07335 26.9266L1.7733 22.8666ZM27.02 23.2866L23.2867 27.02C23.24 27.0666 23.1 27.0666 23.0533 27.02L18.2233 22.19L19.8799 20.5334C20.0666 20.3467 20.0666 20.0667 19.8799 19.88C19.6933 19.6934 19.4133 19.6934 19.2266 19.88L17.5699 21.5366L16.8933 20.86L17.8733 19.88C18.0599 19.6934 18.0599 19.4134 17.8733 19.2266C17.6867 19.04 17.4067 19.04 17.2199 19.2266L16.24 20.2066L15.5866 19.5533L17.2199 17.9199C17.4066 17.7333 17.4066 17.4533 17.2199 17.2666C17.0333 17.0799 16.7533 17.0799 16.5666 17.2666L14.9333 18.9L14.6533 18.62L18.6199 14.6534L27.02 23.0534C27.0667 23.1 27.0667 23.24 27.02 23.2866Z" fill="#E3B873"/>
</svg>
